<svg xmlns="http://www.w3.org/2000/svg"><defs><symbol id="icon-magnifying-glass" viewBox="0 0 18 18"><path d="M17.317 14.983a1.65 1.65 0 0 1-2.334 2.333l-4.836-4.835A6.56 6.56 0 0 1 6.8 13.4a6.6 6.6 0 1 1 6.6-6.6 6.56 6.56 0 0 1-.919 3.347l4.836 4.836zM6.8 1.849a4.95 4.95 0 1 0 .001 9.901 4.95 4.95 0 0 0-.001-9.9z"/></symbol><symbol id="icon-shopping-cart" viewBox="0 0 22 18"><path d="M21.271 4.396h.001l-2.97 6.6a.99.99 0 0 1-.836.582l-8.554.57.494 1.411h9.313a1.98 1.98 0 1 1-1.98 1.981h-9.24a1.98 1.98 0 1 1-1.98-1.981h1.789L3.497 2.67H1.229a.99.99 0 0 1 0-1.98h2.97c.432 0 .796.278.931.664l.004-.001.576 1.648h14.659a.99.99 0 0 1 .901 1.396zM6.404 4.98l1.83 5.228 8.507-.568 2.098-4.661H6.405z"/></symbol></defs></svg>