<!-- Generated by IcoMoon.io -->
<svg version="1.1" xmlns="http://www.w3.org/2000/svg" width="18" height="18" viewBox="0 0 18 18">
<title>magnifying-glass</title>
<path fill="#fff" d="M17.317 14.983c0.298 0.298 0.483 0.711 0.483 1.167 0 0.911-0.739 1.65-1.65 1.65-0.456 0-0.868-0.185-1.167-0.484v0l-4.836-4.835c-0.982 0.58-2.124 0.919-3.347 0.919-3.645 0-6.6-2.955-6.6-6.6s2.955-6.6 6.6-6.6c3.645 0 6.6 2.955 6.6 6.6 0 1.223-0.339 2.365-0.919 3.347l4.836 4.836zM6.8 1.849c-2.734 0-4.95 2.217-4.95 4.951s2.216 4.95 4.95 4.95c2.734 0 4.95-2.216 4.95-4.95s-2.216-4.951-4.95-4.951z"></path>
</svg>
