<!-- Generated by IcoMoon.io -->
<svg version="1.1" xmlns="http://www.w3.org/2000/svg" width="22" height="18" viewBox="0 0 22 18">
<title>shopping-cart</title>
<path fill="#fff" d="M21.271 4.396h0.001l-2.97 6.6c-0.146 0.325-0.463 0.557-0.836 0.582v0l-8.554 0.57 0.494 1.411h9.313c1.093 0 1.98 0.887 1.98 1.981 0 1.093-0.887 1.98-1.98 1.98s-1.98-0.887-1.98-1.98h-9.24c0 1.093-0.887 1.98-1.98 1.98s-1.98-0.887-1.98-1.98c0-1.094 0.887-1.981 1.98-1.981h1.789l-3.811-10.889h-2.268c-0.547 0-0.99-0.444-0.99-0.99 0-0.547 0.443-0.99 0.99-0.99h2.97c0.432 0 0.796 0.278 0.931 0.664l0.004-0.001 0.576 1.648h14.659c0.547 0 0.99 0.443 0.99 0.99 0 0.144-0.032 0.281-0.089 0.406zM6.404 4.98l1.83 5.228 8.507-0.568 2.098-4.661h-12.434z"></path>
</svg>
