<!-- Generated by IcoMoon.io -->
<svg version="1.1" xmlns="http://www.w3.org/2000/svg" width="32" height="32" viewBox="0 0 32 32">
<title>computer</title>
<path fill="#95e1d3" d="M30 25h-9.5v2.499l2 2.001v0.5h-13v-0.5l2-2.001v-2.499h-9.5c-0.828 0-1.5-0.672-1.5-1.501v-19.999c0-0.829 0.672-1.5 1.5-1.5h28c0.828 0 1.5 0.671 1.5 1.5v19.999c0 0.829-0.672 1.501-1.5 1.501zM29.5 4h-27v17h27v-17zM13 11c0.414 0 0.789 0.168 1.061 0.439v0l0.939 0.939 2.939-2.939c0.272-0.272 0.647-0.439 1.061-0.439 0.828 0 1.5 0.671 1.5 1.5 0 0.414-0.168 0.789-0.439 1.061v0l-4 4c-0.272 0.271-0.647 0.439-1.061 0.439s-0.789-0.168-1.061-0.439v0l-2-2.001c-0.271-0.271-0.439-0.646-0.439-1.060 0-0.829 0.672-1.5 1.5-1.5z"></path>
</svg>
