<!-- Generated by IcoMoon.io -->
<svg version="1.1" xmlns="http://www.w3.org/2000/svg" width="32" height="32" viewBox="0 0 32 32">
<title>home</title>
<path fill="#95e1d3" d="M32 17c0 0.828-0.672 1.499-1.5 1.499-0.395 0-0.752-0.155-1.020-0.405l-0.003 0.004-13.477-13.476-13.447 13.446c-0.271 0.267-0.643 0.431-1.053 0.431-0.828 0-1.5-0.671-1.5-1.499 0-0.425 0.177-0.808 0.461-1.081l14.458-14.459c0.273-0.283 0.656-0.46 1.081-0.46v0 0c0 0 0 0 0.001 0 0.026 0 0.052 0 0.079 0.002 0.004 0 0.008 0.001 0.012 0.001 0.023 0.001 0.045 0.003 0.068 0.005 0.001 0 0.002 0 0.004 0.001 0.367 0.040 0.694 0.212 0.933 0.468l0.001-0.001 5.902 5.902v-1.378c0-0.829 0.671-1.5 1.5-1.5 0.828 0 1.5 0.671 1.5 1.5v4.378l5.598 5.598-0.004 0.004c0.25 0.268 0.406 0.625 0.406 1.020zM29 19.5v10.5c0 0.828-0.672 1.5-1.5 1.5h-3v-12h-6v12h-14c-0.828 0-1.5-0.672-1.5-1.5v-10.5l13-13 13 13zM13.5 19.5h-6v6h6v-6z"></path>
</svg>
